# xmcd
#
# Track frame offsets:
#	150
#	10870
#	21156
#	32181
#	43205
#	55048
#	66026
#	76431
#	86936
#	97457
#	107888
#	117700
#	128847
#	140357
#	148613
#	156315
#	168591
#	179458
#	188825
#	199471
#	212342
#
# Disc length: 2976 seconds
#
# Revision: 2
# Processed by: cddbd v1.5.2PL0 Copyright (c) Steve Scherf et al.
# Submitted via: EasyCDDAExtractor 11.1.0.1
#
DISCID=3f0b9e15
DTITLE=Chad Morgan - The Singles Collection: Regal Zonophone And Beyond - Disc
DTITLE=1
DYEAR=2002
DGENRE=Country
TTITLE0=The Sheik Of Scrubby Creek
TTITLE1=You Can Have Your Women, I'll Stick To My Booze
TTITLE2=The Shotgun Wedding
TTITLE3=The Bachelor's Warning
TTITLE4=The Duckinwilla Dance
TTITLE5=The Answer To The Bachelor's Warning
TTITLE6=It's No Fun
TTITLE7=Chasing Sorts In Childers
TTITLE8=The Pychiatrists Joy From Kingaroy
TTITLE9=Going Home
TTITLE10=The Dinkum Dill
TTITLE11=The Sheik Goes Courting
TTITLE12=The Tough Cane Cutter From The Isis
TTITLE13=The Fatal Wedding
TTITLE14=What I Am?
TTITLE15=Who's Going To Pay For The Wedding
TTITLE16=How It Started
TTITLE17=When The Whips Are Cracking (I'll Be There)
TTITLE18=Nobody Else But Little Me
TTITLE19=The Night I Went Below
TTITLE20=The Juvenile Delinquent
EXTD=YEAR: 2002
EXTT0=
EXTT1=
EXTT2=
EXTT3=
EXTT4=
EXTT5=
EXTT6=
EXTT7=
EXTT8=
EXTT9=
EXTT10=
EXTT11=
EXTT12=
EXTT13=
EXTT14=
EXTT15=
EXTT16=
EXTT17=
EXTT18=
EXTT19=
EXTT20=
PLAYORDER=
